<svg width="3025" height="1893" xmlns="http://www.w3.org/2000/svg" xmlns:xlink="http://www.w3.org/1999/xlink" xml:space="preserve" overflow="hidden"><g transform="translate(-508 -247)"><g><path d="M1445 452.001C1445 411.131 1478.13 378 1519 378L2801 378C2841.87 378 2875 411.131 2875 452.001L2875 452.001C2875 492.87 2841.87 526.001 2801 526.001L1519 526C1478.13 526 1445 492.869 1445 451.999Z" fill="#A3130A" fill-rule="evenodd" fill-opacity="1"/><text fill="#FFFFFF" fill-opacity="1" font-family="Arial,Arial_MSFontService,sans-serif" font-style="normal" font-variant="normal" font-weight="400" font-stretch="normal" font-size="73" text-anchor="start" direction="ltr" writing-mode="lr-tb" unicode-bidi="normal" text-decoration="none" transform="matrix(1 0 0 1 1981.31 479)">Application</text><path d="M1445 614.5C1445 573.355 1478.35 540 1519.5 540L2800.5 540C2841.65 540 2875 573.355 2875 614.5 2875 655.645 2841.65 689 2800.5 689L1519.5 689C1478.35 689 1445 655.645 1445 614.5Z" fill="#CD5229" fill-rule="evenodd" fill-opacity="1"/><text fill="#FFFFFF" fill-opacity="1" font-family="Arial,Arial_MSFontService,sans-serif" font-style="normal" font-variant="normal" font-weight="400" font-stretch="normal" font-size="73" text-anchor="start" direction="ltr" writing-mode="lr-tb" unicode-bidi="normal" text-decoration="none" transform="matrix(1 0 0 1 2005.37 642)">Algorithm</text><path d="M1445 777.001C1445 736.131 1478.13 703 1519 703L2801 703C2841.87 703 2875 736.131 2875 777.001L2875 777.001C2875 817.87 2841.87 851.002 2801 851.002L1519 851C1478.13 851 1445 817.869 1445 776.999Z" fill="#E5B422" fill-rule="evenodd" fill-opacity="1"/><text fill="#FFFFFF" fill-opacity="1" font-family="Arial,Arial_MSFontService,sans-serif" font-style="normal" font-variant="normal" font-weight="400" font-stretch="normal" font-size="73" text-anchor="start" direction="ltr" writing-mode="lr-tb" unicode-bidi="normal" text-decoration="none" transform="matrix(1 0 0 1 1767.03 804)">Programming Language</text><path d="M1445 940.001C1445 899.131 1478.13 866 1519 866L2801 866C2841.87 866 2875 899.131 2875 940.001L2875 940.001C2875 980.87 2841.87 1014 2801 1014L1519 1014C1478.13 1014 1445 980.869 1445 939.999Z" fill="#9CCF55" fill-rule="evenodd" fill-opacity="1"/><text fill="#FFFFFF" fill-opacity="1" font-family="Arial,Arial_MSFontService,sans-serif" font-style="normal" font-variant="normal" font-weight="400" font-stretch="normal" font-size="73" text-anchor="start" direction="ltr" writing-mode="lr-tb" unicode-bidi="normal" text-decoration="none" transform="matrix(1 0 0 1 1828.34 967)">Assembly Language</text><path d="M1445 1102.5C1445 1061.35 1478.35 1028 1519.5 1028L2800.5 1028C2841.65 1028 2875 1061.35 2875 1102.5 2875 1143.65 2841.65 1177 2800.5 1177L1519.5 1177C1478.35 1177 1445 1143.65 1445 1102.5Z" fill="#44AD51" fill-rule="evenodd" fill-opacity="1"/><text fill="#FFFFFF" fill-opacity="1" font-family="Arial,Arial_MSFontService,sans-serif" font-style="normal" font-variant="normal" font-weight="400" font-stretch="normal" font-size="73" text-anchor="start" direction="ltr" writing-mode="lr-tb" unicode-bidi="normal" text-decoration="none" transform="matrix(1 0 0 1 1924.01 1129)">Machine Code</text><path d="M1445 1265C1445 1224.13 1478.13 1191 1519 1191L2801 1191C2841.87 1191 2875 1224.13 2875 1265L2875 1265C2875 1305.87 2841.87 1339 2801 1339L1519 1339C1478.13 1339 1445 1305.87 1445 1265Z" fill="#96B5E3" fill-rule="evenodd" fill-opacity="1"/><text fill="#FFFFFF" fill-opacity="1" font-family="Arial,Arial_MSFontService,sans-serif" font-style="normal" font-variant="normal" font-weight="400" font-stretch="normal" font-size="73" text-anchor="start" direction="ltr" writing-mode="lr-tb" unicode-bidi="normal" text-decoration="none" transform="matrix(1 0 0 1 1721.51 1292)">Instruction Set Architecture</text><path d="M1445 1427.5C1445 1386.35 1478.35 1353 1519.5 1353L2800.5 1353C2841.65 1353 2875 1386.35 2875 1427.5 2875 1468.65 2841.65 1502 2800.5 1502L1519.5 1502C1478.35 1502 1445 1468.65 1445 1427.5Z" fill="#648FD4" fill-rule="evenodd" fill-opacity="1"/><text fill="#FFFFFF" fill-opacity="1" font-family="Arial,Arial_MSFontService,sans-serif" font-style="normal" font-variant="normal" font-weight="400" font-stretch="normal" font-size="73" text-anchor="start" direction="ltr" writing-mode="lr-tb" unicode-bidi="normal" text-decoration="none" transform="matrix(1 0 0 1 1866.46 1455)">Micro</text><text fill="#FFFFFF" fill-opacity="1" font-family="Arial,Arial_MSFontService,sans-serif" font-style="normal" font-variant="normal" font-weight="400" font-stretch="normal" font-size="73" text-anchor="start" direction="ltr" writing-mode="lr-tb" unicode-bidi="normal" text-decoration="none" transform="matrix(1 0 0 1 2062.35 1455)">Architectur</text><text fill="#FFFFFF" fill-opacity="1" font-family="Arial,Arial_MSFontService,sans-serif" font-style="normal" font-variant="normal" font-weight="400" font-stretch="normal" font-size="73" text-anchor="start" direction="ltr" writing-mode="lr-tb" unicode-bidi="normal" text-decoration="none" transform="matrix(1 0 0 1 2412.97 1455)">e</text><path d="M1445 1590C1445 1549.13 1478.13 1516 1519 1516L2801 1516C2841.87 1516 2875 1549.13 2875 1590L2875 1590C2875 1630.87 2841.87 1664 2801 1664L1519 1664C1478.13 1664 1445 1630.87 1445 1590Z" fill="#A6A6A6" fill-rule="evenodd" fill-opacity="1"/><text fill="#FFFFFF" fill-opacity="1" font-family="Arial,Arial_MSFontService,sans-serif" font-style="normal" font-variant="normal" font-weight="400" font-stretch="normal" font-size="73" text-anchor="start" direction="ltr" writing-mode="lr-tb" unicode-bidi="normal" text-decoration="none" transform="matrix(1 0 0 1 1789.09 1617)">Logic Gates, Registers</text><path d="M1445 1753C1445 1712.13 1478.13 1679 1519 1679L2801 1679C2841.87 1679 2875 1712.13 2875 1753L2875 1753C2875 1793.87 2841.87 1827 2801 1827L1519 1827C1478.13 1827 1445 1793.87 1445 1753Z" fill="#7F7F7F" fill-rule="evenodd" fill-opacity="1"/><text fill="#FFFFFF" fill-opacity="1" font-family="Arial,Arial_MSFontService,sans-serif" font-style="normal" font-variant="normal" font-weight="400" font-stretch="normal" font-size="73" text-anchor="start" direction="ltr" writing-mode="lr-tb" unicode-bidi="normal" text-decoration="none" transform="matrix(1 0 0 1 1836.76 1780)">IC’s and Transistors</text><path d="M1445 1915.5C1445 1874.35 1478.35 1841 1519.5 1841L2800.5 1841C2841.65 1841 2875 1874.35 2875 1915.5 2875 1956.65 2841.65 1990 2800.5 1990L1519.5 1990C1478.35 1990 1445 1956.65 1445 1915.5Z" fill="#416190" fill-rule="evenodd" fill-opacity="1"/><text fill="#FFFFFF" fill-opacity="1" font-family="Arial,Arial_MSFontService,sans-serif" font-style="normal" font-variant="normal" font-weight="400" font-stretch="normal" font-size="73" text-anchor="start" direction="ltr" writing-mode="lr-tb" unicode-bidi="normal" text-decoration="none" transform="matrix(1 0 0 1 1773.34 1942)">Electronics and Physics</text><path d="M0 0 277.392 0.000360892" stroke="#4472C4" stroke-width="4.58333" stroke-linecap="butt" stroke-linejoin="miter" stroke-miterlimit="8" stroke-opacity="1" fill="none" fill-rule="evenodd" transform="matrix(-1 0 0 1 1158.89 378.5)"/><path d="M0 0 277.392 0.000360892" stroke="#4472C4" stroke-width="4.58333" stroke-linecap="butt" stroke-linejoin="miter" stroke-miterlimit="8" stroke-opacity="1" fill="none" fill-rule="evenodd" transform="matrix(-1 0 0 1 1158.89 1990.5)"/><path d="M2.29167-5.13138e-07 2.29202 1588.82-2.29131 1588.82-2.29167 5.13138e-07ZM13.7504 1584.24 0.000360892 1611.74-13.7496 1584.24Z" fill="#4472C4" fill-rule="nonzero" fill-opacity="1" transform="matrix(1 0 0 -1 1019.5 1990.24)"/><path d="M0 0 300.256 0.000360892" stroke="#4472C4" stroke-width="4.58333" stroke-linecap="butt" stroke-linejoin="miter" stroke-miterlimit="8" stroke-opacity="1" fill="none" fill-rule="evenodd" transform="matrix(-1 0 0 1 901.756 378.5)"/><path d="M0 0 300.256 0.000360892" stroke="#4472C4" stroke-width="4.58333" stroke-linecap="butt" stroke-linejoin="miter" stroke-miterlimit="8" stroke-opacity="1" fill="none" fill-rule="evenodd" transform="matrix(-1 0 0 1 901.756 1990.5)"/><path d="M741.792 378.5 741.792 1967.32 737.209 1967.32 737.208 378.5ZM753.25 1962.74 739.5 1990.24 725.75 1962.74Z" fill="#4472C4" fill-rule="nonzero" fill-opacity="1"/><text fill="#7F7F7F" fill-opacity="1" font-family="Arial,Arial_MSFontService,sans-serif" font-style="normal" font-variant="normal" font-weight="400" font-stretch="normal" font-size="73" text-anchor="start" direction="ltr" writing-mode="lr-tb" unicode-bidi="normal" text-decoration="none" transform="matrix(1 0 0 1 556.291 1427)">Complexity</text><text fill="#7F7F7F" fill-opacity="1" font-family="Arial,Arial_MSFontService,sans-serif" font-style="normal" font-variant="normal" font-weight="400" font-stretch="normal" font-size="73" text-anchor="start" direction="ltr" writing-mode="lr-tb" unicode-bidi="normal" text-decoration="none" transform="matrix(1 0 0 1 828.987 980)">Abstraction</text><text fill="#00B050" fill-opacity="1" font-family="Arial,Arial_MSFontService,sans-serif" font-style="normal" font-variant="normal" font-weight="400" font-stretch="normal" font-size="73" text-anchor="start" direction="ltr" writing-mode="lr-tb" unicode-bidi="normal" text-decoration="none" transform="matrix(1 0 0 1 672.392 343)">Low</text><text fill="#C00000" fill-opacity="1" font-family="Arial,Arial_MSFontService,sans-serif" font-style="normal" font-variant="normal" font-weight="400" font-stretch="normal" font-size="73" text-anchor="start" direction="ltr" writing-mode="lr-tb" unicode-bidi="normal" text-decoration="none" transform="matrix(1 0 0 1 933.984 343)">Hig</text><text fill="#C00000" fill-opacity="1" font-family="Arial,Arial_MSFontService,sans-serif" font-style="normal" font-variant="normal" font-weight="400" font-stretch="normal" font-size="73" text-anchor="start" direction="ltr" writing-mode="lr-tb" unicode-bidi="normal" text-decoration="none" transform="matrix(1 0 0 1 1043.41 343)">h</text><text fill="#C00000" fill-opacity="1" font-family="Arial,Arial_MSFontService,sans-serif" font-style="normal" font-variant="normal" font-weight="400" font-stretch="normal" font-size="73" text-anchor="start" direction="ltr" writing-mode="lr-tb" unicode-bidi="normal" text-decoration="none" transform="matrix(1 0 0 1 664.371 2077)">Hig</text><text fill="#C00000" fill-opacity="1" font-family="Arial,Arial_MSFontService,sans-serif" font-style="normal" font-variant="normal" font-weight="400" font-stretch="normal" font-size="73" text-anchor="start" direction="ltr" writing-mode="lr-tb" unicode-bidi="normal" text-decoration="none" transform="matrix(1 0 0 1 773.798 2077)">h</text><text fill="#00B050" fill-opacity="1" font-family="Arial,Arial_MSFontService,sans-serif" font-style="normal" font-variant="normal" font-weight="400" font-stretch="normal" font-size="73" text-anchor="start" direction="ltr" writing-mode="lr-tb" unicode-bidi="normal" text-decoration="none" transform="matrix(1 0 0 1 954.566 2077)">Low</text><path d="M0 0 287.012 0.000360892" stroke="#4472C4" stroke-width="4.58333" stroke-linecap="butt" stroke-linejoin="miter" stroke-miterlimit="8" stroke-opacity="1" fill="none" fill-rule="evenodd" transform="matrix(-1 0 0 1 1445.51 378.5)"/><path d="M0 0 307.345 0.000360892" stroke="#4472C4" stroke-width="4.58333" stroke-linecap="butt" stroke-linejoin="miter" stroke-miterlimit="8" stroke-opacity="1" fill="none" fill-rule="evenodd" transform="matrix(-1 0 0 1 1445.84 1990.5)"/><path d="M1308.79 401.416 1308.79 1245.15 1304.21 1245.15 1304.21 401.416ZM1292.75 406 1306.5 378.5 1320.25 406ZM1320.25 1240.57 1306.5 1268.07 1292.75 1240.57Z" fill="#4472C4" fill-rule="nonzero" fill-opacity="1"/><path d="M0 0 277.392 0.000360892" stroke="#4472C4" stroke-width="4.58333" stroke-linecap="butt" stroke-linejoin="miter" stroke-miterlimit="8" stroke-opacity="1" fill="none" fill-rule="evenodd" transform="matrix(-1 0 0 1 1445.89 1267.5)"/><path d="M1308.79 1290.42 1308.79 1966.76 1304.21 1966.76 1304.21 1290.42ZM1292.75 1295 1306.5 1267.5 1320.25 1295ZM1320.25 1962.17 1306.5 1989.67 1292.75 1962.17Z" fill="#4472C4" fill-rule="nonzero" fill-opacity="1"/><text fill="#7F7F7F" fill-opacity="1" font-family="Arial,Arial_MSFontService,sans-serif" font-style="normal" font-variant="normal" font-weight="400" font-stretch="normal" font-size="73" text-anchor="start" direction="ltr" writing-mode="lr-tb" unicode-bidi="normal" text-decoration="none" transform="matrix(1 0 0 1 1151.11 804)">Software</text><text fill="#7F7F7F" fill-opacity="1" font-family="Arial,Arial_MSFontService,sans-serif" font-style="normal" font-variant="normal" font-weight="400" font-stretch="normal" font-size="73" text-anchor="start" direction="ltr" writing-mode="lr-tb" unicode-bidi="normal" text-decoration="none" transform="matrix(1 0 0 1 1117.65 1615)">Hardware</text><path d="M2875.5 777.5 3109.14 779.891" stroke="#4472C4" stroke-width="4.58333" stroke-linecap="butt" stroke-linejoin="miter" stroke-miterlimit="8" stroke-opacity="1" fill="none" fill-rule="evenodd"/><path d="M0 0 233.64 0.000360892" stroke="#4472C4" stroke-width="4.58333" stroke-linecap="butt" stroke-linejoin="miter" stroke-miterlimit="8" stroke-opacity="1" fill="none" fill-rule="evenodd" transform="matrix(1 0 0 -1 2875.5 940.5)"/><path d="M2987.79 780.5 2987.79 917.801 2983.21 917.801 2983.21 780.5ZM2999.25 913.218 2985.5 940.718 2971.75 913.218Z" fill="#4472C4" fill-rule="nonzero" fill-opacity="1"/><text fill="#FF0000" fill-opacity="1" font-family="Arial,Arial_MSFontService,sans-serif" font-style="normal" font-variant="normal" font-weight="700" font-stretch="normal" font-size="73" text-anchor="start" direction="ltr" writing-mode="lr-tb" unicode-bidi="normal" text-decoration="none" transform="matrix(1 0 0 1 3046.75 886)">We are here!</text></g></g></svg>