<svg width="2718" height="1870" xmlns="http://www.w3.org/2000/svg" xmlns:xlink="http://www.w3.org/1999/xlink" xml:space="preserve" overflow="hidden"><g transform="translate(-398 -261)"><g><rect x="1345.5" y="264.5" width="822" height="366" stroke="#000000de" stroke-width="4.58333" stroke-linecap="butt" stroke-linejoin="miter" stroke-miterlimit="8" stroke-opacity="1" fill="none"/><text fill="#000000de" fill-opacity="1" font-family="Courier New,Courier New_MSFontService,sans-serif" font-style="normal" font-variant="normal" font-weight="400" font-stretch="normal" font-size="55" text-anchor="start" direction="ltr" writing-mode="lr-tb" unicode-bidi="normal" text-decoration="none" transform="matrix(1 0 0 1 1377.63 329)">FUNCTION Example:</text><text fill="#000000de" fill-opacity="1" font-family="Courier New,Courier New_MSFontService,sans-serif" font-style="normal" font-variant="normal" font-weight="400" font-stretch="normal" font-size="55" text-anchor="start" direction="ltr" writing-mode="lr-tb" unicode-bidi="normal" text-decoration="none" transform="matrix(1 0 0 1 1510.54 395)">T0 = #0</text><text fill="#000000de" fill-opacity="1" font-family="Courier New,Courier New_MSFontService,sans-serif" font-style="normal" font-variant="normal" font-weight="400" font-stretch="normal" font-size="55" text-anchor="start" direction="ltr" writing-mode="lr-tb" unicode-bidi="normal" text-decoration="none" transform="matrix(1 0 0 1 1510.54 461)">T1 = #10</text><text fill="#000000de" fill-opacity="1" font-family="Courier New,Courier New_MSFontService,sans-serif" font-style="normal" font-variant="normal" font-weight="400" font-stretch="normal" font-size="55" text-anchor="start" direction="ltr" writing-mode="lr-tb" unicode-bidi="normal" text-decoration="none" transform="matrix(1 0 0 1 1510.54 527)">T2 = #0</text><text fill="#000000de" fill-opacity="1" font-family="Courier New,Courier New_MSFontService,sans-serif" font-style="normal" font-variant="normal" font-weight="400" font-stretch="normal" font-size="55" text-anchor="start" direction="ltr" writing-mode="lr-tb" unicode-bidi="normal" text-decoration="none" transform="matrix(1 0 0 1 1510.54 593)">GOTO L0</text><rect x="1345.5" y="779.5" width="822" height="166" stroke="#000000de" stroke-width="4.58333" stroke-linecap="butt" stroke-linejoin="miter" stroke-miterlimit="8" stroke-opacity="1" fill="none"/><text fill="#000000de" fill-opacity="1" font-family="Courier New,Courier New_MSFontService,sans-serif" font-style="normal" font-variant="normal" font-weight="400" font-stretch="normal" font-size="55" text-anchor="start" direction="ltr" writing-mode="lr-tb" unicode-bidi="normal" text-decoration="none" transform="matrix(1 0 0 1 1377.63 844)">LABEL L0:</text><text fill="#000000de" fill-opacity="1" font-family="Courier New,Courier New_MSFontService,sans-serif" font-style="normal" font-variant="normal" font-weight="400" font-stretch="normal" font-size="55" text-anchor="start" direction="ltr" writing-mode="lr-tb" unicode-bidi="normal" text-decoration="none" transform="matrix(1 0 0 1 1510.54 910)">IF T0 &lt; T1 GOTO L3</text><rect x="1345.5" y="1317.5" width="822" height="167" stroke="#000000de" stroke-width="4.58333" stroke-linecap="butt" stroke-linejoin="miter" stroke-miterlimit="8" stroke-opacity="1" fill="none"/><text fill="#000000de" fill-opacity="1" font-family="Courier New,Courier New_MSFontService,sans-serif" font-style="normal" font-variant="normal" font-weight="400" font-stretch="normal" font-size="55" text-anchor="start" direction="ltr" writing-mode="lr-tb" unicode-bidi="normal" text-decoration="none" transform="matrix(1 0 0 1 1377.63 1382)">LABEL L3:</text><text fill="#000000de" fill-opacity="1" font-family="Courier New,Courier New_MSFontService,sans-serif" font-style="normal" font-variant="normal" font-weight="400" font-stretch="normal" font-size="55" text-anchor="start" direction="ltr" writing-mode="lr-tb" unicode-bidi="normal" text-decoration="none" transform="matrix(1 0 0 1 1510.54 1448)">IF T2 &lt; T1 GOTO L1</text><rect x="1345.5" y="1632.5" width="822" height="167" stroke="#000000de" stroke-width="4.58333" stroke-linecap="butt" stroke-linejoin="miter" stroke-miterlimit="8" stroke-opacity="1" fill="none"/><text fill="#000000de" fill-opacity="1" font-family="Courier New,Courier New_MSFontService,sans-serif" font-style="normal" font-variant="normal" font-weight="400" font-stretch="normal" font-size="55" text-anchor="start" direction="ltr" writing-mode="lr-tb" unicode-bidi="normal" text-decoration="none" transform="matrix(1 0 0 1 1377.63 1698)">LABEL Example_N1:</text><text fill="#000000de" fill-opacity="1" font-family="Courier New,Courier New_MSFontService,sans-serif" font-style="normal" font-variant="normal" font-weight="400" font-stretch="normal" font-size="55" text-anchor="start" direction="ltr" writing-mode="lr-tb" unicode-bidi="normal" text-decoration="none" transform="matrix(1 0 0 1 1510.54 1764)">GOTO L2</text><rect x="401.5" y="1048.5" width="823" height="166" stroke="#000000de" stroke-width="4.58333" stroke-linecap="butt" stroke-linejoin="miter" stroke-miterlimit="8" stroke-opacity="1" fill="none"/><text fill="#000000de" fill-opacity="1" font-family="Courier New,Courier New_MSFontService,sans-serif" font-style="normal" font-variant="normal" font-weight="400" font-stretch="normal" font-size="55" text-anchor="start" direction="ltr" writing-mode="lr-tb" unicode-bidi="normal" text-decoration="none" transform="matrix(1 0 0 1 434.418 1113)">LABEL Example_N0:</text><text fill="#000000de" fill-opacity="1" font-family="Courier New,Courier New_MSFontService,sans-serif" font-style="normal" font-variant="normal" font-weight="400" font-stretch="normal" font-size="55" text-anchor="start" direction="ltr" writing-mode="lr-tb" unicode-bidi="normal" text-decoration="none" transform="matrix(1 0 0 1 567.335 1179)">GOTO L2</text><rect x="2288.5" y="981.5" width="822" height="300" stroke="#000000de" stroke-width="4.58333" stroke-linecap="butt" stroke-linejoin="miter" stroke-miterlimit="8" stroke-opacity="1" fill="none"/><text fill="#000000de" fill-opacity="1" font-family="Courier New,Courier New_MSFontService,sans-serif" font-style="normal" font-variant="normal" font-weight="400" font-stretch="normal" font-size="55" text-anchor="start" direction="ltr" writing-mode="lr-tb" unicode-bidi="normal" text-decoration="none" transform="matrix(1 0 0 1 2320.84 1047)">LABEL L1:</text><text fill="#000000de" fill-opacity="1" font-family="Courier New,Courier New_MSFontService,sans-serif" font-style="normal" font-variant="normal" font-weight="400" font-stretch="normal" font-size="55" text-anchor="start" direction="ltr" writing-mode="lr-tb" unicode-bidi="normal" text-decoration="none" transform="matrix(1 0 0 1 2453.75 1113)">T2 = T2 + T0</text><text fill="#000000de" fill-opacity="1" font-family="Courier New,Courier New_MSFontService,sans-serif" font-style="normal" font-variant="normal" font-weight="400" font-stretch="normal" font-size="55" text-anchor="start" direction="ltr" writing-mode="lr-tb" unicode-bidi="normal" text-decoration="none" transform="matrix(1 0 0 1 2453.75 1179)">T0 = T0 + #1</text><text fill="#000000de" fill-opacity="1" font-family="Courier New,Courier New_MSFontService,sans-serif" font-style="normal" font-variant="normal" font-weight="400" font-stretch="normal" font-size="55" text-anchor="start" direction="ltr" writing-mode="lr-tb" unicode-bidi="normal" text-decoration="none" transform="matrix(1 0 0 1 2453.75 1245)">GOTO L0</text><rect x="1345.5" y="1947.5" width="822" height="167" stroke="#000000de" stroke-width="4.58333" stroke-linecap="butt" stroke-linejoin="miter" stroke-miterlimit="8" stroke-opacity="1" fill="none"/><text fill="#000000de" fill-opacity="1" font-family="Courier New,Courier New_MSFontService,sans-serif" font-style="normal" font-variant="normal" font-weight="400" font-stretch="normal" font-size="55" text-anchor="start" direction="ltr" writing-mode="lr-tb" unicode-bidi="normal" text-decoration="none" transform="matrix(1 0 0 1 1377.63 2013)">LABEL L2</text><text fill="#000000de" fill-opacity="1" font-family="Courier New,Courier New_MSFontService,sans-serif" font-style="normal" font-variant="normal" font-weight="400" font-stretch="normal" font-size="55" text-anchor="start" direction="ltr" writing-mode="lr-tb" unicode-bidi="normal" text-decoration="none" transform="matrix(1 0 0 1 1643.46 2013)">:</text><text fill="#000000de" fill-opacity="1" font-family="Courier New,Courier New_MSFontService,sans-serif" font-style="normal" font-variant="normal" font-weight="400" font-stretch="normal" font-size="55" text-anchor="start" direction="ltr" writing-mode="lr-tb" unicode-bidi="normal" text-decoration="none" transform="matrix(1 0 0 1 1510.54 2079)">RETURN </text><text fill="#000000de" fill-opacity="1" font-family="Courier New,Courier New_MSFontService,sans-serif" font-style="normal" font-variant="normal" font-weight="400" font-stretch="normal" font-size="55" text-anchor="start" direction="ltr" writing-mode="lr-tb" unicode-bidi="normal" text-decoration="none" transform="matrix(1 0 0 1 1743.15 2079)">T2</text><path d="M1758.79 630.5 1758.79 756.195 1754.21 756.195 1754.21 630.5ZM1770.25 751.612 1756.5 779.112 1742.75 751.612Z" fill="#000000de" fill-rule="nonzero" fill-opacity="1"/><path d="M1758.79 1484.5 1758.79 1610.2 1754.21 1610.2 1754.21 1484.5ZM1770.25 1605.61 1756.5 1633.11 1742.75 1605.61Z" fill="#000000de" fill-rule="nonzero" fill-opacity="1"/><path d="M1758.79 1799.5 1758.79 1925.2 1754.21 1925.2 1754.21 1799.5ZM1770.25 1920.61 1756.5 1948.11 1742.75 1920.61Z" fill="#000000de" fill-rule="nonzero" fill-opacity="1"/><path d="M0-2.29167 534.232-2.29167 534.232 162.924 529.648 162.924 529.648 0 531.94 2.29167 0 2.29167ZM545.69 158.341 531.94 185.841 518.19 158.341Z" fill="#000000de" fill-rule="nonzero" fill-opacity="1" transform="matrix(-1 1.22465e-16 1.22465e-16 1 1345.44 862.5)"/><path d="M0-2.29167 818.581-2.29167 818.581 509.024 813.997 509.024 813.997 0 816.289 2.29167 0 2.29167ZM830.039 504.44 816.289 531.94 802.539 504.44Z" fill="#000000de" fill-rule="nonzero" fill-opacity="1" transform="matrix(1.83697e-16 1 1 -1.83697e-16 813.5 1214.5)"/><path d="M1758.79 945.5 1758.79 1294.27 1754.21 1294.27 1754.21 945.5ZM1770.25 1289.68 1756.5 1317.18 1742.75 1289.68Z" fill="#000000de" fill-rule="nonzero" fill-opacity="1"/><path d="M0-2.29167 534.232-2.29167 534.232 96.281 529.649 96.281 529.649 0 531.94 2.29167 0 2.29167ZM545.69 91.6977 531.94 119.198 518.19 91.6977Z" fill="#000000de" fill-rule="nonzero" fill-opacity="1" transform="matrix(1 0 0 -1 2167.5 1400.7)"/><path d="M0-2.29167 121.488-2.29167 121.488 509.024 116.905 509.024 116.905 0 119.196 2.29167 0 2.29167ZM132.946 504.44 119.196 531.94 105.446 504.44Z" fill="#000000de" fill-rule="nonzero" fill-opacity="1" transform="matrix(-1.83697e-16 -1 -1 1.83697e-16 2699.44 981.696)"/></g></g></svg>