<svg width="1430" height="1467" xmlns="http://www.w3.org/2000/svg" xmlns:xlink="http://www.w3.org/1999/xlink" xml:space="preserve" overflow="hidden"><g transform="translate(-884 -545)"><g><rect x="972.5" y="549.5" width="1255" height="234" stroke="#000000de" stroke-width="4.58333" stroke-linecap="butt" stroke-linejoin="miter" stroke-miterlimit="8" stroke-opacity="1" fill="none"/><text fill="#000000de" fill-opacity="1" font-family="Courier New,Courier New_MSFontService,sans-serif" font-style="normal" font-variant="normal" font-weight="400" font-stretch="normal" font-size="55" text-anchor="start" direction="ltr" writing-mode="lr-tb" unicode-bidi="normal" text-decoration="none" transform="matrix(1 0 0 1 1004.94 614)">FUNCTION Example:</text><text fill="#000000de" fill-opacity="1" font-family="Courier New,Courier New_MSFontService,sans-serif" font-style="normal" font-variant="normal" font-weight="400" font-stretch="normal" font-size="55" text-anchor="start" direction="ltr" writing-mode="lr-tb" unicode-bidi="normal" text-decoration="none" transform="matrix(1 0 0 1 1137.86 680)">T0 = #</text><text fill="#000000de" fill-opacity="1" font-family="Courier New,Courier New_MSFontService,sans-serif" font-style="normal" font-variant="normal" font-weight="400" font-stretch="normal" font-size="55" text-anchor="start" direction="ltr" writing-mode="lr-tb" unicode-bidi="normal" text-decoration="none" transform="matrix(1 0 0 1 1337.23 680)">0</text><text fill="#000000de" fill-opacity="1" font-family="Courier New,Courier New_MSFontService,sans-serif" font-style="normal" font-variant="normal" font-weight="400" font-stretch="normal" font-size="55" text-anchor="start" direction="ltr" writing-mode="lr-tb" unicode-bidi="normal" text-decoration="none" transform="matrix(1 0 0 1 1137.86 746)">GOTO L0</text><rect x="972.5" y="931.5" width="1255" height="300" stroke="#000000de" stroke-width="4.58333" stroke-linecap="butt" stroke-linejoin="miter" stroke-miterlimit="8" stroke-opacity="1" fill="none"/><text fill="#000000de" fill-opacity="1" font-family="Courier New,Courier New_MSFontService,sans-serif" font-style="normal" font-variant="normal" font-weight="400" font-stretch="normal" font-size="55" text-anchor="start" direction="ltr" writing-mode="lr-tb" unicode-bidi="normal" text-decoration="none" transform="matrix(1 0 0 1 1004.94 996)">LABEL L0</text><text fill="#000000de" fill-opacity="1" font-family="Courier New,Courier New_MSFontService,sans-serif" font-style="normal" font-variant="normal" font-weight="400" font-stretch="normal" font-size="55" text-anchor="start" direction="ltr" writing-mode="lr-tb" unicode-bidi="normal" text-decoration="none" transform="matrix(1 0 0 1 1270.77 996)">:</text><text fill="#000000de" fill-opacity="1" font-family="Courier New,Courier New_MSFontService,sans-serif" font-style="normal" font-variant="normal" font-weight="400" font-stretch="normal" font-size="55" text-anchor="start" direction="ltr" writing-mode="lr-tb" unicode-bidi="normal" text-decoration="none" transform="matrix(1 0 0 1 1137.86 1062)">T1 = PHI [Example, T0], [L1, T4]</text><text fill="#000000de" fill-opacity="1" font-family="Courier New,Courier New_MSFontService,sans-serif" font-style="normal" font-variant="normal" font-weight="400" font-stretch="normal" font-size="55" text-anchor="start" direction="ltr" writing-mode="lr-tb" unicode-bidi="normal" text-decoration="none" transform="matrix(1 0 0 1 1137.86 1128)">T2 = #10</text><text fill="#000000de" fill-opacity="1" font-family="Courier New,Courier New_MSFontService,sans-serif" font-style="normal" font-variant="normal" font-weight="400" font-stretch="normal" font-size="55" text-anchor="start" direction="ltr" writing-mode="lr-tb" unicode-bidi="normal" text-decoration="none" transform="matrix(1 0 0 1 1137.86 1194)">IF </text><text fill="#000000de" fill-opacity="1" font-family="Courier New,Courier New_MSFontService,sans-serif" font-style="normal" font-variant="normal" font-weight="400" font-stretch="normal" font-size="55" text-anchor="start" direction="ltr" writing-mode="lr-tb" unicode-bidi="normal" text-decoration="none" transform="matrix(1 0 0 1 1237.54 1194)">T1 </text><text fill="#000000de" fill-opacity="1" font-family="Courier New,Courier New_MSFontService,sans-serif" font-style="normal" font-variant="normal" font-weight="400" font-stretch="normal" font-size="55" text-anchor="start" direction="ltr" writing-mode="lr-tb" unicode-bidi="normal" text-decoration="none" transform="matrix(1 0 0 1 1337.23 1194)">&lt; </text><text fill="#000000de" fill-opacity="1" font-family="Courier New,Courier New_MSFontService,sans-serif" font-style="normal" font-variant="normal" font-weight="400" font-stretch="normal" font-size="55" text-anchor="start" direction="ltr" writing-mode="lr-tb" unicode-bidi="normal" text-decoration="none" transform="matrix(1 0 0 1 1403.69 1194)">T2 </text><text fill="#000000de" fill-opacity="1" font-family="Courier New,Courier New_MSFontService,sans-serif" font-style="normal" font-variant="normal" font-weight="400" font-stretch="normal" font-size="55" text-anchor="start" direction="ltr" writing-mode="lr-tb" unicode-bidi="normal" text-decoration="none" transform="matrix(1 0 0 1 1503.38 1194)">GOTO L1</text><rect x="972.5" y="1380.5" width="1255" height="300" stroke="#000000de" stroke-width="4.58333" stroke-linecap="butt" stroke-linejoin="miter" stroke-miterlimit="8" stroke-opacity="1" fill="none"/><text fill="#000000de" fill-opacity="1" font-family="Courier New,Courier New_MSFontService,sans-serif" font-style="normal" font-variant="normal" font-weight="400" font-stretch="normal" font-size="55" text-anchor="start" direction="ltr" writing-mode="lr-tb" unicode-bidi="normal" text-decoration="none" transform="matrix(1 0 0 1 1004.94 1444)">LABEL L1:</text><text fill="#C55A11" fill-opacity="1" font-family="Courier New,Courier New_MSFontService,sans-serif" font-style="normal" font-variant="normal" font-weight="400" font-stretch="normal" font-size="55" text-anchor="start" direction="ltr" writing-mode="lr-tb" unicode-bidi="normal" text-decoration="none" transform="matrix(1 0 0 1 1137.86 1510)">T3 </text><text fill="#C55A11" fill-opacity="1" font-family="Courier New,Courier New_MSFontService,sans-serif" font-style="normal" font-variant="normal" font-weight="400" font-stretch="normal" font-size="55" text-anchor="start" direction="ltr" writing-mode="lr-tb" unicode-bidi="normal" text-decoration="none" transform="matrix(1 0 0 1 1237.54 1510)">= CALL </text><text fill="#C55A11" fill-opacity="1" font-family="Courier New,Courier New_MSFontService,sans-serif" font-style="normal" font-variant="normal" font-weight="400" font-stretch="normal" font-size="55" text-anchor="start" direction="ltr" writing-mode="lr-tb" unicode-bidi="normal" text-decoration="none" transform="matrix(1 0 0 1 1470.15 1510)">read</text><text fill="#000000de" fill-opacity="1" font-family="Courier New,Courier New_MSFontService,sans-serif" font-style="normal" font-variant="normal" font-weight="400" font-stretch="normal" font-size="55" text-anchor="start" direction="ltr" writing-mode="lr-tb" unicode-bidi="normal" text-decoration="none" transform="matrix(1 0 0 1 1137.86 1576)">T4 </text><text fill="#000000de" fill-opacity="1" font-family="Courier New,Courier New_MSFontService,sans-serif" font-style="normal" font-variant="normal" font-weight="400" font-stretch="normal" font-size="55" text-anchor="start" direction="ltr" writing-mode="lr-tb" unicode-bidi="normal" text-decoration="none" transform="matrix(1 0 0 1 1237.54 1576)">= </text><text fill="#000000de" fill-opacity="1" font-family="Courier New,Courier New_MSFontService,sans-serif" font-style="normal" font-variant="normal" font-weight="400" font-stretch="normal" font-size="55" text-anchor="start" direction="ltr" writing-mode="lr-tb" unicode-bidi="normal" text-decoration="none" transform="matrix(1 0 0 1 1304 1576)">T1 </text><text fill="#000000de" fill-opacity="1" font-family="Courier New,Courier New_MSFontService,sans-serif" font-style="normal" font-variant="normal" font-weight="400" font-stretch="normal" font-size="55" text-anchor="start" direction="ltr" writing-mode="lr-tb" unicode-bidi="normal" text-decoration="none" transform="matrix(1 0 0 1 1403.69 1576)">+ #1</text><text fill="#000000de" fill-opacity="1" font-family="Courier New,Courier New_MSFontService,sans-serif" font-style="normal" font-variant="normal" font-weight="400" font-stretch="normal" font-size="55" text-anchor="start" direction="ltr" writing-mode="lr-tb" unicode-bidi="normal" text-decoration="none" transform="matrix(1 0 0 1 1137.86 1642)">GOTO L0</text><rect x="972.5" y="1828.5" width="1255" height="167" stroke="#000000de" stroke-width="4.58333" stroke-linecap="butt" stroke-linejoin="miter" stroke-miterlimit="8" stroke-opacity="1" fill="none"/><text fill="#000000de" fill-opacity="1" font-family="Courier New,Courier New_MSFontService,sans-serif" font-style="normal" font-variant="normal" font-weight="400" font-stretch="normal" font-size="55" text-anchor="start" direction="ltr" writing-mode="lr-tb" unicode-bidi="normal" text-decoration="none" transform="matrix(1 0 0 1 1004.94 1893)">LABEL L2:</text><text fill="#2F5597" fill-opacity="1" font-family="Courier New,Courier New_MSFontService,sans-serif" font-style="normal" font-variant="normal" font-weight="400" font-stretch="normal" font-size="55" text-anchor="start" direction="ltr" writing-mode="lr-tb" unicode-bidi="normal" text-decoration="none" transform="matrix(1 0 0 1 1137.86 1959)">RETURN </text><text fill="#2F5597" fill-opacity="1" font-family="Courier New,Courier New_MSFontService,sans-serif" font-style="normal" font-variant="normal" font-weight="400" font-stretch="normal" font-size="55" text-anchor="start" direction="ltr" writing-mode="lr-tb" unicode-bidi="normal" text-decoration="none" transform="matrix(1 0 0 1 1370.46 1959)">T</text><text fill="#2F5597" fill-opacity="1" font-family="Courier New,Courier New_MSFontService,sans-serif" font-style="normal" font-variant="normal" font-weight="400" font-stretch="normal" font-size="55" text-anchor="start" direction="ltr" writing-mode="lr-tb" unicode-bidi="normal" text-decoration="none" transform="matrix(1 0 0 1 1403.69 1959)">3</text><path d="M2.29167-1.66954e-05 2.29258 125.696-2.29075 125.696-2.29167 1.66954e-05ZM13.7509 121.112 0.00108268 148.612-13.7491 121.112Z" fill="#000000de" fill-rule="nonzero" fill-opacity="1" transform="matrix(-1 0 0 1 1599.5 783.5)"/><path d="M0-2.29167 84.792-2.29167 84.792 832.673 22.917 832.673 22.917 828.089 82.5004 828.089 80.2087 830.381 80.2087 0 82.5004 2.29167 0 2.29167ZM27.5004 844.131 0.000360892 830.381 27.5004 816.631Z" fill="#000000de" fill-rule="nonzero" fill-opacity="1" transform="matrix(-1 1.22465e-16 1.22465e-16 1 972.5 1081.5)"/><path d="M2.29167-5.56512e-06 2.29197 125.696-2.29136 125.696-2.29167 5.56512e-06ZM13.7503 121.112 0.000360892 148.612-13.7497 121.112Z" fill="#000000de" fill-rule="nonzero" fill-opacity="1" transform="matrix(-1 0 0 1 1599.5 1231.5)"/><path d="M1601.79 1679.96 1601.79 1762.46 1599.5 1760.17 2309.3 1760.17 2307.01 1762.46 2307.01 1081.5 2309.3 1083.79 2249.72 1083.79 2249.72 1079.21 2311.59 1079.21 2311.59 1764.75 1597.21 1764.75 1597.21 1679.96ZM2254.31 1095.25 2226.81 1081.5 2254.31 1067.75Z" fill="#000000de" fill-rule="nonzero" fill-opacity="1"/></g></g></svg>