<svg width="4194" height="2100" xmlns="http://www.w3.org/2000/svg" xmlns:xlink="http://www.w3.org/1999/xlink" xml:space="preserve" overflow="hidden"><g transform="translate(-22 -187)"><g><rect x="972.5" y="474.5" width="822" height="367" stroke="#000000de" stroke-width="4.58333" stroke-linecap="butt" stroke-linejoin="miter" stroke-miterlimit="8" stroke-opacity="1" fill="none"/><text fill="#000000de" fill-opacity="1" font-family="Courier New,Courier New_MSFontService,sans-serif" font-style="normal" font-variant="normal" font-weight="400" font-stretch="normal" font-size="55" text-anchor="start" direction="ltr" writing-mode="lr-tb" unicode-bidi="normal" text-decoration="none" transform="matrix(1 0 0 1 1004.94 538)">FUNCTION Example:</text><text fill="#000000de" fill-opacity="1" font-family="Courier New,Courier New_MSFontService,sans-serif" font-style="normal" font-variant="normal" font-weight="400" font-stretch="normal" font-size="55" text-anchor="start" direction="ltr" writing-mode="lr-tb" unicode-bidi="normal" text-decoration="none" transform="matrix(1 0 0 1 1137.86 604)">T0 = #0</text><text fill="#000000de" fill-opacity="1" font-family="Courier New,Courier New_MSFontService,sans-serif" font-style="normal" font-variant="normal" font-weight="400" font-stretch="normal" font-size="55" text-anchor="start" direction="ltr" writing-mode="lr-tb" unicode-bidi="normal" text-decoration="none" transform="matrix(1 0 0 1 1137.86 670)">T1 = #10</text><text fill="#000000de" fill-opacity="1" font-family="Courier New,Courier New_MSFontService,sans-serif" font-style="normal" font-variant="normal" font-weight="400" font-stretch="normal" font-size="55" text-anchor="start" direction="ltr" writing-mode="lr-tb" unicode-bidi="normal" text-decoration="none" transform="matrix(1 0 0 1 1137.86 736)">T2 = #0</text><text fill="#000000de" fill-opacity="1" font-family="Courier New,Courier New_MSFontService,sans-serif" font-style="normal" font-variant="normal" font-weight="400" font-stretch="normal" font-size="55" text-anchor="start" direction="ltr" writing-mode="lr-tb" unicode-bidi="normal" text-decoration="none" transform="matrix(1 0 0 1 1137.86 802)">GOTO L0</text><rect x="972.5" y="989.5" width="822" height="167" stroke="#C55A11" stroke-width="4.58333" stroke-linecap="butt" stroke-linejoin="miter" stroke-miterlimit="8" stroke-opacity="1" fill="none"/><text fill="#000000de" fill-opacity="1" font-family="Courier New,Courier New_MSFontService,sans-serif" font-style="normal" font-variant="normal" font-weight="400" font-stretch="normal" font-size="55" text-anchor="start" direction="ltr" writing-mode="lr-tb" unicode-bidi="normal" text-decoration="none" transform="matrix(1 0 0 1 1004.94 1054)">LABEL L0:</text><text fill="#000000de" fill-opacity="1" font-family="Courier New,Courier New_MSFontService,sans-serif" font-style="normal" font-variant="normal" font-weight="400" font-stretch="normal" font-size="55" text-anchor="start" direction="ltr" writing-mode="lr-tb" unicode-bidi="normal" text-decoration="none" transform="matrix(1 0 0 1 1137.86 1120)">IF T0 &lt; T1 GOTO L1</text><rect x="29.5001" y="1304.5" width="822" height="167" stroke="#000000de" stroke-width="4.58333" stroke-linecap="butt" stroke-linejoin="miter" stroke-miterlimit="8" stroke-opacity="1" fill="none"/><text fill="#000000de" fill-opacity="1" font-family="Courier New,Courier New_MSFontService,sans-serif" font-style="normal" font-variant="normal" font-weight="400" font-stretch="normal" font-size="55" text-anchor="start" direction="ltr" writing-mode="lr-tb" unicode-bidi="normal" text-decoration="none" transform="matrix(1 0 0 1 61.7335 1369)">LABEL Example_N0:</text><text fill="#000000de" fill-opacity="1" font-family="Courier New,Courier New_MSFontService,sans-serif" font-style="normal" font-variant="normal" font-weight="400" font-stretch="normal" font-size="55" text-anchor="start" direction="ltr" writing-mode="lr-tb" unicode-bidi="normal" text-decoration="none" transform="matrix(1 0 0 1 194.65 1435)">GOTO L2</text><rect x="972.5" y="1304.5" width="822" height="300" stroke="#2F5597" stroke-width="4.58333" stroke-linecap="butt" stroke-linejoin="miter" stroke-miterlimit="8" stroke-opacity="1" fill="none"/><text fill="#000000de" fill-opacity="1" font-family="Courier New,Courier New_MSFontService,sans-serif" font-style="normal" font-variant="normal" font-weight="400" font-stretch="normal" font-size="55" text-anchor="start" direction="ltr" writing-mode="lr-tb" unicode-bidi="normal" text-decoration="none" transform="matrix(1 0 0 1 1004.94 1369)">LABEL L1:</text><text fill="#000000de" fill-opacity="1" font-family="Courier New,Courier New_MSFontService,sans-serif" font-style="normal" font-variant="normal" font-weight="400" font-stretch="normal" font-size="55" text-anchor="start" direction="ltr" writing-mode="lr-tb" unicode-bidi="normal" text-decoration="none" transform="matrix(1 0 0 1 1137.86 1435)">T2 = T2 + T0</text><text fill="#000000de" fill-opacity="1" font-family="Courier New,Courier New_MSFontService,sans-serif" font-style="normal" font-variant="normal" font-weight="400" font-stretch="normal" font-size="55" text-anchor="start" direction="ltr" writing-mode="lr-tb" unicode-bidi="normal" text-decoration="none" transform="matrix(1 0 0 1 1137.86 1501)">T0 = T0 + #1</text><text fill="#000000de" fill-opacity="1" font-family="Courier New,Courier New_MSFontService,sans-serif" font-style="normal" font-variant="normal" font-weight="400" font-stretch="normal" font-size="55" text-anchor="start" direction="ltr" writing-mode="lr-tb" unicode-bidi="normal" text-decoration="none" transform="matrix(1 0 0 1 1137.86 1567)">GOTO L0</text><rect x="972.5" y="1753.5" width="822" height="166" stroke="#000000de" stroke-width="4.58333" stroke-linecap="butt" stroke-linejoin="miter" stroke-miterlimit="8" stroke-opacity="1" fill="none"/><text fill="#000000de" fill-opacity="1" font-family="Courier New,Courier New_MSFontService,sans-serif" font-style="normal" font-variant="normal" font-weight="400" font-stretch="normal" font-size="55" text-anchor="start" direction="ltr" writing-mode="lr-tb" unicode-bidi="normal" text-decoration="none" transform="matrix(1 0 0 1 1004.94 1817)">LABEL L2:</text><text fill="#000000de" fill-opacity="1" font-family="Courier New,Courier New_MSFontService,sans-serif" font-style="normal" font-variant="normal" font-weight="400" font-stretch="normal" font-size="55" text-anchor="start" direction="ltr" writing-mode="lr-tb" unicode-bidi="normal" text-decoration="none" transform="matrix(1 0 0 1 1137.86 1883)">RETURN T2</text><path d="M1385.79 841.5 1385.79 967.196 1381.21 967.196 1381.21 841.5ZM1397.25 962.612 1383.5 990.112 1369.75 962.612Z" fill="#000000de" fill-rule="nonzero" fill-opacity="1"/><path d="M0-2.29167 534.232-2.29167 534.232 209.001 529.648 209.001 529.648 0 531.94 2.29167 0 2.29167ZM545.69 204.418 531.94 231.918 518.19 204.418Z" fill="#000000de" fill-rule="nonzero" fill-opacity="1" transform="matrix(-1 1.22465e-16 1.22465e-16 1 972.44 1072.5)"/><path d="M0-2.29167 367.499-2.29167 367.499 509.024 362.916 509.024 362.916 0 365.207 2.29167 0 2.29167ZM378.957 504.44 365.207 531.94 351.457 504.44Z" fill="#000000de" fill-rule="nonzero" fill-opacity="1" transform="matrix(1.83697e-16 1 1 -1.83697e-16 440.5 1471.5)"/><path d="M1385.79 1156.5 1385.79 1282.2 1381.21 1282.2 1381.21 1156.5ZM1397.25 1277.61 1383.5 1305.11 1369.75 1277.61Z" fill="#000000de" fill-rule="nonzero" fill-opacity="1"/><path d="M1385.79 1604.32 1385.79 1686.82 1383.5 1684.53 2038.24 1684.53 2035.95 1686.82 2035.95 1072.5 2038.24 1074.79 1817.69 1074.79 1817.69 1070.21 2040.54 1070.21 2040.54 1689.11 1381.21 1689.11 1381.21 1604.32ZM1822.27 1086.25 1794.77 1072.5 1822.27 1058.75Z" fill="#000000de" fill-rule="nonzero" fill-opacity="1"/><rect x="3307.5" y="191.5" width="822" height="367" stroke="#000000de" stroke-width="4.58333" stroke-linecap="butt" stroke-linejoin="miter" stroke-miterlimit="8" stroke-opacity="1" fill="none"/><text fill="#000000de" fill-opacity="1" font-family="Courier New,Courier New_MSFontService,sans-serif" font-style="normal" font-variant="normal" font-weight="400" font-stretch="normal" font-size="55" text-anchor="start" direction="ltr" writing-mode="lr-tb" unicode-bidi="normal" text-decoration="none" transform="matrix(1 0 0 1 3339.83 256)">FUNCTION Example:</text><text fill="#000000de" fill-opacity="1" font-family="Courier New,Courier New_MSFontService,sans-serif" font-style="normal" font-variant="normal" font-weight="400" font-stretch="normal" font-size="55" text-anchor="start" direction="ltr" writing-mode="lr-tb" unicode-bidi="normal" text-decoration="none" transform="matrix(1 0 0 1 3472.75 322)">T0 = #0</text><text fill="#000000de" fill-opacity="1" font-family="Courier New,Courier New_MSFontService,sans-serif" font-style="normal" font-variant="normal" font-weight="400" font-stretch="normal" font-size="55" text-anchor="start" direction="ltr" writing-mode="lr-tb" unicode-bidi="normal" text-decoration="none" transform="matrix(1 0 0 1 3472.75 388)">T1 = #10</text><text fill="#000000de" fill-opacity="1" font-family="Courier New,Courier New_MSFontService,sans-serif" font-style="normal" font-variant="normal" font-weight="400" font-stretch="normal" font-size="55" text-anchor="start" direction="ltr" writing-mode="lr-tb" unicode-bidi="normal" text-decoration="none" transform="matrix(1 0 0 1 3472.75 454)">T2 = #0</text><text fill="#000000de" fill-opacity="1" font-family="Courier New,Courier New_MSFontService,sans-serif" font-style="normal" font-variant="normal" font-weight="400" font-stretch="normal" font-size="55" text-anchor="start" direction="ltr" writing-mode="lr-tb" unicode-bidi="normal" text-decoration="none" transform="matrix(1 0 0 1 3472.75 520)">GOTO L0</text><rect x="3307.5" y="707.5" width="822" height="166" stroke="#000000de" stroke-width="4.58333" stroke-linecap="butt" stroke-linejoin="miter" stroke-miterlimit="8" stroke-opacity="1" fill="none"/><text fill="#000000de" fill-opacity="1" font-family="Courier New,Courier New_MSFontService,sans-serif" font-style="normal" font-variant="normal" font-weight="400" font-stretch="normal" font-size="55" text-anchor="start" direction="ltr" writing-mode="lr-tb" unicode-bidi="normal" text-decoration="none" transform="matrix(1 0 0 1 3339.83 771)">LABEL L0:</text><text fill="#000000de" fill-opacity="1" font-family="Courier New,Courier New_MSFontService,sans-serif" font-style="normal" font-variant="normal" font-weight="400" font-stretch="normal" font-size="55" text-anchor="start" direction="ltr" writing-mode="lr-tb" unicode-bidi="normal" text-decoration="none" transform="matrix(1 0 0 1 3472.75 837)">IF T0 &lt; T1 GOTO L1</text><rect x="2364.5" y="1022.5" width="822" height="166" stroke="#000000de" stroke-width="4.58333" stroke-linecap="butt" stroke-linejoin="miter" stroke-miterlimit="8" stroke-opacity="1" fill="none"/><text fill="#000000de" fill-opacity="1" font-family="Courier New,Courier New_MSFontService,sans-serif" font-style="normal" font-variant="normal" font-weight="400" font-stretch="normal" font-size="55" text-anchor="start" direction="ltr" writing-mode="lr-tb" unicode-bidi="normal" text-decoration="none" transform="matrix(1 0 0 1 2396.62 1086)">LABEL Example_N0:</text><text fill="#000000de" fill-opacity="1" font-family="Courier New,Courier New_MSFontService,sans-serif" font-style="normal" font-variant="normal" font-weight="400" font-stretch="normal" font-size="55" text-anchor="start" direction="ltr" writing-mode="lr-tb" unicode-bidi="normal" text-decoration="none" transform="matrix(1 0 0 1 2529.54 1152)">GOTO L2</text><rect x="3307.5" y="1022.5" width="822" height="300" stroke="#2F5597" stroke-width="4.58333" stroke-linecap="butt" stroke-linejoin="miter" stroke-miterlimit="8" stroke-opacity="1" fill="none"/><text fill="#000000de" fill-opacity="1" font-family="Courier New,Courier New_MSFontService,sans-serif" font-style="normal" font-variant="normal" font-weight="400" font-stretch="normal" font-size="55" text-anchor="start" direction="ltr" writing-mode="lr-tb" unicode-bidi="normal" text-decoration="none" transform="matrix(1 0 0 1 3339.83 1086)">LABEL L1:</text><text fill="#000000de" fill-opacity="1" font-family="Courier New,Courier New_MSFontService,sans-serif" font-style="normal" font-variant="normal" font-weight="400" font-stretch="normal" font-size="55" text-anchor="start" direction="ltr" writing-mode="lr-tb" unicode-bidi="normal" text-decoration="none" transform="matrix(1 0 0 1 3472.75 1152)">T2 = T2 + T0</text><text fill="#000000de" fill-opacity="1" font-family="Courier New,Courier New_MSFontService,sans-serif" font-style="normal" font-variant="normal" font-weight="400" font-stretch="normal" font-size="55" text-anchor="start" direction="ltr" writing-mode="lr-tb" unicode-bidi="normal" text-decoration="none" transform="matrix(1 0 0 1 3472.75 1218)">T0 = T0 + #1</text><text fill="#000000de" fill-opacity="1" font-family="Courier New,Courier New_MSFontService,sans-serif" font-style="normal" font-variant="normal" font-weight="400" font-stretch="normal" font-size="55" text-anchor="start" direction="ltr" writing-mode="lr-tb" unicode-bidi="normal" text-decoration="none" transform="matrix(1 0 0 1 3472.75 1284)">GOTO L0</text><rect x="3307.5" y="2106.5" width="822" height="167" stroke="#000000de" stroke-width="4.58333" stroke-linecap="butt" stroke-linejoin="miter" stroke-miterlimit="8" stroke-opacity="1" fill="none"/><text fill="#000000de" fill-opacity="1" font-family="Courier New,Courier New_MSFontService,sans-serif" font-style="normal" font-variant="normal" font-weight="400" font-stretch="normal" font-size="55" text-anchor="start" direction="ltr" writing-mode="lr-tb" unicode-bidi="normal" text-decoration="none" transform="matrix(1 0 0 1 3339.83 2171)">LABEL L2:</text><text fill="#000000de" fill-opacity="1" font-family="Courier New,Courier New_MSFontService,sans-serif" font-style="normal" font-variant="normal" font-weight="400" font-stretch="normal" font-size="55" text-anchor="start" direction="ltr" writing-mode="lr-tb" unicode-bidi="normal" text-decoration="none" transform="matrix(1 0 0 1 3472.75 2237)">RETURN T2</text><path d="M3720.79 558.5 3720.79 684.196 3716.21 684.196 3716.21 558.5ZM3732.25 679.612 3718.5 707.112 3704.75 679.612Z" fill="#000000de" fill-rule="nonzero" fill-opacity="1"/><path d="M0-2.29167 534.232-2.29167 534.232 209.001 529.648 209.001 529.648 0 531.94 2.29167 0 2.29167ZM545.69 204.418 531.94 231.918 518.19 204.418Z" fill="#000000de" fill-rule="nonzero" fill-opacity="1" transform="matrix(-1 1.22465e-16 1.22465e-16 1 3307.44 790.5)"/><path d="M0-2.29167 1003.21-2.29167 1003.21 509.023 998.624 509.023 998.624 0 1000.92 2.29167 0 2.29167ZM1014.67 504.44 1000.92 531.94 987.166 504.44Z" fill="#000000de" fill-rule="nonzero" fill-opacity="1" transform="matrix(1.83697e-16 1 1 -1.83697e-16 2775.5 1188.5)"/><path d="M3720.79 873.5 3720.79 999.195 3716.21 999.195 3716.21 873.5ZM3732.25 994.612 3718.5 1022.11 3704.75 994.612Z" fill="#000000de" fill-rule="nonzero" fill-opacity="1"/><rect x="3307.5" y="1472.5" width="822" height="167" stroke="#C55A11" stroke-width="4.58333" stroke-linecap="butt" stroke-linejoin="miter" stroke-miterlimit="8" stroke-opacity="1" fill="none"/><text fill="#000000de" fill-opacity="1" font-family="Courier New,Courier New_MSFontService,sans-serif" font-style="normal" font-variant="normal" font-weight="400" font-stretch="normal" font-size="55" text-anchor="start" direction="ltr" writing-mode="lr-tb" unicode-bidi="normal" text-decoration="none" transform="matrix(1 0 0 1 3339.83 1537)">LABEL L1_0:</text><text fill="#000000de" fill-opacity="1" font-family="Courier New,Courier New_MSFontService,sans-serif" font-style="normal" font-variant="normal" font-weight="400" font-stretch="normal" font-size="55" text-anchor="start" direction="ltr" writing-mode="lr-tb" unicode-bidi="normal" text-decoration="none" transform="matrix(1 0 0 1 3472.75 1603)">IF T0 &lt; T1 GOTO L1</text><path d="M2.29167-5.50173e-06 2.29197 127.408-2.29136 127.408-2.29167 5.50173e-06ZM13.7503 122.825 0.000360892 150.325-13.7497 122.825Z" fill="#000000de" fill-rule="nonzero" fill-opacity="1" transform="matrix(-1 0 0 1 3718.5 1322.5)"/><rect x="3307.5" y="1789.5" width="822" height="167" stroke="#000000de" stroke-width="4.58333" stroke-linecap="butt" stroke-linejoin="miter" stroke-miterlimit="8" stroke-opacity="1" fill="none"/><text fill="#000000de" fill-opacity="1" font-family="Courier New,Courier New_MSFontService,sans-serif" font-style="normal" font-variant="normal" font-weight="400" font-stretch="normal" font-size="55" text-anchor="start" direction="ltr" writing-mode="lr-tb" unicode-bidi="normal" text-decoration="none" transform="matrix(1 0 0 1 3339.83 1854)">LABEL L1_1:</text><text fill="#000000de" fill-opacity="1" font-family="Courier New,Courier New_MSFontService,sans-serif" font-style="normal" font-variant="normal" font-weight="400" font-stretch="normal" font-size="55" text-anchor="start" direction="ltr" writing-mode="lr-tb" unicode-bidi="normal" text-decoration="none" transform="matrix(1 0 0 1 3472.75 1920)">GOTO L2</text><path d="M3720.79 1639.5 3720.79 1766.97 3716.21 1766.97 3716.21 1639.5ZM3732.25 1762.39 3718.5 1789.89 3704.75 1762.39Z" fill="#000000de" fill-rule="nonzero" fill-opacity="1"/><path d="M3720.79 1956.5 3720.79 2083.97 3716.21 2083.97 3716.21 1956.5ZM3732.25 2079.39 3718.5 2106.89 3704.75 2079.39Z" fill="#000000de" fill-rule="nonzero" fill-opacity="1"/><path d="M2071.5 1213.25 2277 1213.25 2277 1188.5 2326.5 1238 2277 1287.5 2277 1262.75 2071.5 1262.75Z" stroke="#172C51" stroke-width="4.58333" stroke-linecap="butt" stroke-linejoin="miter" stroke-miterlimit="8" stroke-opacity="1" fill="#4472C4" fill-rule="evenodd" fill-opacity="1"/><path d="M0-2.29167 84.792-2.29167 84.792 385.872 22.917 385.872 22.917 381.289 82.5004 381.289 80.2087 383.581 80.2087 0 82.5004 2.29167 0 2.29167ZM27.5004 397.331 0.000360892 383.581 27.5004 369.831Z" fill="#000000de" fill-rule="nonzero" fill-opacity="1" transform="matrix(1 0 0 -1 4129.5 1556.08)"/></g></g></svg>